<svg width="112px" height="51px" viewBox="0 0 112 51" version="1.1" xmlns="http://www.w3.org/2000/svg" xmlns:xlink="http://www.w3.org/1999/xlink">
  <g id="Blog" stroke="none" stroke-width="1" fill="none" fill-rule="evenodd">
    <g transform="translate(-49.000000, -49.000000)" id="Group-3" fill="#212529">
      <g transform="translate(50.000000, 50.000000)">
        <path d="M0,0.632158263 L0,27.1828053 L5.54580002,27.1828053 L5.54580002,8.55272944 L5.62125308,8.55272944 L12.223396,27.1828053 L16.7883062,27.1828053 L23.3904491,8.36680054 L23.4659021,8.36680054 L23.4659021,27.1828053 L29.0117021,27.1828053 L29.0117021,0.632158263 L20.6741388,0.632158263 L14.713347,18.8903763 L14.6378939,18.8903763 L8.33756329,0.632158263 L0,0.632158263 Z M39.9603012,16.91953 L46.9397094,16.91953 L43.5443216,7.17685557 L43.4688686,7.17685557 L39.9603012,16.91953 Z M40.5261992,0.632158263 L46.6001706,0.632158263 L56.6731543,27.1828053 L50.5237298,27.1828053 L48.4864971,21.2702663 L38.4135134,21.2702663 L36.3008277,27.1828053 L30.3400359,27.1828053 L40.5261992,0.632158263 Z M57.9637615,0.632158263 L57.9637615,27.1828053 L63.5095615,27.1828053 L63.5095615,9.40800238 L63.5850146,9.40800238 L74.7897942,27.1828053 L80.7128595,27.1828053 L80.7128595,0.632158263 L75.1670595,0.632158263 L75.1670595,18.444147 L75.0916065,18.444147 L63.8491003,0.632158263 L57.9637615,0.632158263 Z M89.6242259,14.0190391 C89.6242259,15.1346181 89.7562675,16.2191925 90.0203545,17.2727949 C90.2844415,18.3263973 90.7057169,19.2746252 91.2841933,20.1175071 C91.8626697,20.960389 92.6171927,21.6359239 93.5477851,22.1441321 C94.4783775,22.6523403 95.6101621,22.9064406 96.9431729,22.9064406 C98.2761837,22.9064406 99.4079683,22.6523403 100.338561,22.1441321 C101.269153,21.6359239 102.023676,20.960389 102.602153,20.1175071 C103.180629,19.2746252 103.601904,18.3263973 103.865991,17.2727949 C104.130078,16.2191925 104.26212,15.1346181 104.26212,14.0190391 C104.26212,12.8538788 104.130078,11.7259215 103.865991,10.6351331 C103.601904,9.54434479 103.180629,8.5713266 102.602153,7.71604938 C102.023676,6.86077216 101.269153,6.17903968 100.338561,5.67083147 C99.4079683,5.16262327 98.2761837,4.90852298 96.9431729,4.90852298 C95.6101621,4.90852298 94.4783775,5.16262327 93.5477851,5.67083147 C92.6171927,6.17903968 91.8626697,6.86077216 91.2841933,7.71604938 C90.7057169,8.5713266 90.2844415,9.54434479 90.0203545,10.6351331 C89.7562675,11.7259215 89.6242259,12.8538788 89.6242259,14.0190391 Z M83.7011606,14.0190391 C83.7011606,12.0357876 84.0029698,10.1951099 84.6065974,8.49695077 C85.2102249,6.79879165 86.0779264,5.31757288 87.209728,4.05325004 C88.3415296,2.78892719 89.7311095,1.7973163 91.3785096,1.07838762 C93.0259097,0.359458947 94.8807789,0 96.9431729,0 C99.030718,0 100.891875,0.359458947 102.526699,1.07838762 C104.161524,1.7973163 105.544816,2.78892719 106.676618,4.05325004 C107.808419,5.31757288 108.676121,6.79879165 109.279748,8.49695077 C109.883376,10.1951099 110.185185,12.0357876 110.185185,14.0190391 C110.185185,15.9527094 109.883376,17.7562017 109.279748,19.4295701 C108.676121,21.1029386 107.808419,22.5593671 106.676618,23.7988993 C105.544816,25.0384315 104.161524,26.0114497 102.526699,26.717983 C100.891875,27.4245164 99.030718,27.7777778 96.9431729,27.7777778 C94.8807789,27.7777778 93.0259097,27.4245164 91.3785096,26.717983 C89.7311095,26.0114497 88.3415296,25.0384315 87.209728,23.7988993 C86.0779264,22.5593671 85.2102249,21.1029386 84.6065974,19.4295701 C84.0029698,17.7562017 83.7011606,15.9527094 83.7011606,14.0190391 Z" id="MANO" stroke="#212529" stroke-width="1.5"></path>
        <path d="M13.0362377,43.1790123 L13.0362377,41.2191358 L11.3276046,41.2191358 L11.3276046,36.1111111 L8.97448708,36.1111111 L8.97448708,50 L11.3276046,50 L11.3276046,43.1790123 L13.0362377,43.1790123 Z M5.21249667,44.7839506 L5.21249667,39.3209877 L3.29403144,39.3209877 L3.29403144,44.7839506 L5.21249667,44.7839506 Z M7.58060218,46.7438272 L0.925925926,46.7438272 L0.925925926,37.3611111 L7.58060218,37.3611111 L7.58060218,46.7438272 Z M25.8359979,48.5185185 L25.8359979,46.6666667 L20.9049427,46.6666667 L20.9049427,43.75 L24.6069811,43.75 L24.6069811,41.882716 L17.3078204,41.882716 L17.3078204,37.1141975 L14.9247269,37.1141975 L14.9247269,43.75 L18.5668132,43.75 L18.5668132,46.6666667 L13.6357581,46.6666667 L13.6357581,48.5185185 L25.8359979,48.5185185 Z M33.6447509,37.3765432 C33.7047029,42.1759259 32.22089,45.8641975 27.664535,48.0709877 L26.3905542,46.2037037 C28.1891154,45.3549383 29.5230482,44.1820988 30.3174127,42.7006173 L26.7952305,43.0555556 L26.5404343,41.0339506 L30.9918732,40.8024691 C31.0967892,40.3395062 31.1567413,39.8611111 31.1567413,39.3518519 L27.2448708,39.3518519 L27.2448708,37.3765432 L33.6447509,37.3765432 Z M35.6831202,43.2716049 L33.5098588,43.2716049 L33.5098588,41.2345679 L35.6831202,41.2345679 L35.6831202,36.1111111 L38.0362377,36.1111111 L38.0362377,50 L35.6831202,50 L35.6831202,43.2716049 Z M50.9259259,50 L50.9259259,36.1111111 L48.5578204,36.1111111 L48.5578204,50 L50.9259259,50 Z M47.868372,44.6141975 C46.339595,44.9228395 44.0014655,45.0462963 42.6375566,45 L42.6375566,42.9320988 L46.6693312,42.9320988 L46.6693312,37.2993827 L40.2694511,37.2993827 L40.2694511,39.2592593 L44.3012257,39.2592593 L44.3012257,41.0185185 L40.2694511,41.0185185 L40.2694511,46.9907407 C40.6291633,47.0061728 41.8731681,47.0061728 42.3078204,47.0061728 C44.3162137,46.9907407 46.414535,46.8518519 48.0632161,46.5432099 L47.868372,44.6141975 Z" id="마노커리"></path>
        <path d="M55.5555556,47.7932099 L58.0104743,47.7932099 L58.0104743,45.462963 L55.5555556,45.462963 L55.5555556,47.7932099 Z M55.5555556,42.0061728 L58.0104743,42.0061728 L58.0104743,39.691358 L55.5555556,39.691358 L55.5555556,42.0061728 Z M61.7151699,39.7530864 C61.7151699,40.5709877 62.2656668,41.0802469 63.0542165,41.0802469 C63.8130096,41.0802469 64.437898,40.5709877 64.437898,39.7376543 C64.437898,38.9506173 63.8130096,38.4259259 63.0542165,38.4259259 C62.2656668,38.4259259 61.7151699,38.9506173 61.7151699,39.7530864 Z M59.4387907,39.7376543 C59.4387907,37.8395062 60.9861334,36.4814815 63.0542165,36.4814815 C65.1520562,36.4814815 66.6993989,37.8395062 66.6993989,39.7530864 C66.6993989,41.6666667 65.1520562,43.0401235 63.0542165,43.0401235 C60.9861334,43.0401235 59.4387907,41.6666667 59.4387907,39.7376543 Z M70.6421472,49.8611111 L70.6421472,47.9475309 L63.530322,47.9475309 L63.530322,47.4228395 L70.4189728,47.4228395 L70.4189728,43.4259259 L61.1944296,43.4259259 L61.1944296,45.2623457 L68.0830804,45.2623457 L68.0830804,45.7716049 L61.1944296,45.7716049 L61.1944296,49.8611111 L70.6421472,49.8611111 Z M70.4189728,42.9012346 L70.4189728,36.1111111 L68.0682021,36.1111111 L68.0682021,42.9012346 L70.4189728,42.9012346 Z M79.4054633,37.5154321 L72.7846218,37.5154321 L72.7846218,39.5061728 L76.8761531,39.5061728 C76.623222,42.2685185 74.8229483,44.5987654 72.0109504,45.8950617 L73.2756055,47.7623457 C77.173719,45.9567901 79.4203416,42.3611111 79.4054633,37.5154321 Z M83.3333333,50 L83.3333333,36.1111111 L80.9974409,36.1111111 L80.9974409,50 L83.3333333,50 Z" id=":일기"></path>
      </g>
    </g>
  </g>
</svg>