<svg width="14px" height="16px" viewBox="0 0 14 16" version="1.1" xmlns="http://www.w3.org/2000/svg" xmlns:xlink="http://www.w3.org/1999/xlink">
  <g id="Blog" stroke="none" stroke-width="1" fill="none" fill-rule="evenodd">
    <g id="Artboard-4" transform="translate(-8.000000, -7.000000)">
      <g id="jiseung">
        <rect id="Rectangle" x="0" y="0" width="30" height="30"></rect>
        <path d="M18.7816092,22.2337165 L16.6896552,22.2337165 L16.6896552,18.210728 L13.4891443,18.210728 C13.238825,18.9616858 12.8633461,19.6232439 12.3090677,20.2132822 C11.6117497,20.9821201 10.5925926,21.6257982 9.12643678,22.1800766 C8.75095785,21.6079183 8.37547893,20.9463602 8,20.4099617 C9.77011494,19.8378033 10.8607918,19.0332056 11.2899106,18.210728 L8.14303959,18.210728 L8.14303959,16.2975734 L11.862069,16.2975734 C11.862069,16.2796935 11.8799489,16.2618135 11.8799489,16.2260536 C11.862069,15.9399745 11.844189,15.6538953 11.844189,15.3678161 C11.0217114,15.5287356 10.1813538,15.6181354 9.28735632,15.7254151 C9.05491699,15.0996169 8.8045977,14.5810983 8.57215837,13.9731801 C10.3065134,13.8659004 12.5772669,13.6155811 14.3473819,13.0970626 L9.37675607,13.0970626 L9.37675607,7 L20.7662835,7 L20.7662835,13.0970626 L15.2413793,13.0970626 L16.2962963,14.3128991 C15.5095785,14.5632184 14.7407407,14.7598978 13.9897829,14.9386973 C13.9719029,15.4214559 13.936143,15.8863346 13.9003831,16.2975734 L16.6896552,16.2975734 L16.6896552,13.6871009 L18.7816092,13.6871009 L18.7816092,16.2975734 L22,16.2975734 L22,18.210728 L18.7816092,18.210728 L18.7816092,22.2337165 Z M11.5581098,10.7547893 L11.5581098,11.4521073 L18.5491699,11.4521073 L18.5491699,10.7547893 L11.5581098,10.7547893 Z M11.5581098,8.6807152 L11.5581098,9.37803321 L18.5491699,9.37803321 L18.5491699,8.6807152 L11.5581098,8.6807152 Z" id="昇" fill="#181818"></path>
      </g>
    </g>
  </g>
</svg>