<svg width="15px" height="15px" viewBox="0 0 15 15" version="1.1" xmlns="http://www.w3.org/2000/svg" xmlns:xlink="http://www.w3.org/1999/xlink">
  <g id="Blog" stroke="none" stroke-width="1" fill="none" fill-rule="evenodd">
    <g id="Artboard-4" transform="translate(-8.000000, -8.000000)">
      <g id="young">
        <rect id="Rectangle" x="0" y="0" width="30" height="30"></rect>
        <path d="M11.6031746,10.9358289 L8.50793651,10.9358289 L8.50793651,9.21925134 L11.6031746,9.21925134 L11.6031746,8 L13.4761905,8 L13.4761905,9.21925134 L17.3968254,9.21925134 L17.3968254,8 L19.2857143,8 L19.2857143,9.21925134 L22.4126984,9.21925134 L22.4126984,10.9358289 L19.2857143,10.9358289 L19.2857143,12.3636364 L17.3968254,12.3636364 L17.3968254,10.9358289 L13.4761905,10.9358289 L13.4761905,12.3636364 L11.6031746,12.3636364 L11.6031746,10.9358289 Z M14.3968254,16.855615 C14.4179895,16.7593578 14.4285714,16.6631021 14.4285714,16.5668449 L14.4285714,14.8342246 L11.6984127,14.8342246 L11.6984127,16.855615 L14.3968254,16.855615 Z M16.4126984,14.8342246 L16.4126984,16.5828877 C16.4126984,16.6791449 16.4074075,16.770053 16.3968254,16.855615 L19.2539683,16.855615 L19.2539683,14.8342246 L16.4126984,14.8342246 Z M17.0634921,18.6363636 C18.2381011,20.0802211 20.2169173,20.9465226 23,21.2352941 C22.8941794,21.3422465 22.7857148,21.4705875 22.6746032,21.6203209 C22.5634915,21.7700542 22.455027,21.9251329 22.3492063,22.0855615 C22.2433857,22.2459901 22.1455031,22.4064163 22.0555556,22.5668449 C21.965608,22.7272735 21.8888892,22.8716571 21.8253968,23 C20.3439079,22.7647047 19.1005341,22.3609654 18.0952381,21.7887701 C17.0899421,21.2165747 16.2539716,20.4492027 15.5873016,19.486631 C15.3544962,19.8609644 15.0582029,20.2165759 14.6984127,20.5534759 C14.3386225,20.890376 13.8994735,21.2085547 13.3809524,21.5080214 C12.8624313,21.8074881 12.2566172,22.0828864 11.5634921,22.3342246 C10.8703669,22.5855628 10.0740786,22.8074857 9.17460317,23 C9.12169286,22.8930476 9.050265,22.7700542 8.96031746,22.631016 C8.87036992,22.4919779 8.7724873,22.3475943 8.66666667,22.197861 C8.56084603,22.0481276 8.44973603,21.9010702 8.33333333,21.7566845 C8.21693063,21.6122987 8.10582063,21.4866316 8,21.3796791 C8.84656508,21.2192505 9.58994389,21.0401079 10.2301587,20.842246 C10.8703736,20.644384 11.4259236,20.4304824 11.8968254,20.2005348 C12.3677272,19.9705871 12.7566122,19.7246002 13.0634921,19.4625668 C13.3703719,19.2005334 13.6190467,18.9251351 13.8095238,18.6363636 L8.34920635,18.6363636 L8.34920635,16.855615 L9.87301587,16.855615 L9.87301587,13.1818182 L14.4285714,13.1818182 L14.4285714,11.5775401 L16.4126984,11.5775401 L16.4126984,13.1818182 L21.1746032,13.1818182 L21.1746032,16.855615 L22.5873016,16.855615 L22.5873016,18.6363636 L17.0634921,18.6363636 Z" id="英" fill="#212529"></path>
      </g>
    </g>
  </g>
</svg>